<?xml version="1.0" standalone="no"?><svg xmlns="http://www.w3.org/2000/svg" viewBox="0 0 1440 320"><path fill="#fff" fill-opacity="10" d="M0,32L34.3,64C68.6,96,137,160,206,170.7C274.3,181,343,139,411,149.3C480,160,549,224,617,213.3C685.7,203,754,117,823,85.3C891.4,53,960,75,1029,122.7C1097.1,171,1166,245,1234,234.7C1302.9,224,1371,128,1406,80L1440,32L1440,320L1405.7,320C1371.4,320,1303,320,1234,320C1165.7,320,1097,320,1029,320C960,320,891,320,823,320C754.3,320,686,320,617,320C548.6,320,480,320,411,320C342.9,320,274,320,206,320C137.1,320,69,320,34,320L0,320Z"></path></svg>